<svg width="42" height="42" viewBox="0 0 42 42" fill="none" xmlns="http://www.w3.org/2000/svg">
<rect width="42" height="42" rx="10" fill="url(#paint0_linear_279_6810)"/>
<path d="M16.45 15.1667C16.5 15.9083 16.625 16.6333 16.825 17.325L15.825 18.325C15.4833 17.325 15.2667 16.2667 15.1917 15.1667H16.45ZM24.6667 25.1833C25.375 25.3833 26.1 25.5083 26.8333 25.5583V26.8C25.7333 26.725 24.675 26.5083 23.6667 26.175L24.6667 25.1833ZM17.25 13.5H14.3333C13.875 13.5 13.5 13.875 13.5 14.3333C13.5 22.1583 19.8417 28.5 27.6667 28.5C28.125 28.5 28.5 28.125 28.5 27.6667V24.7583C28.5 24.3 28.125 23.925 27.6667 23.925C26.6333 23.925 25.625 23.7583 24.6917 23.45C24.6089 23.42 24.5213 23.4059 24.4333 23.4083C24.2167 23.4083 24.0083 23.4917 23.8417 23.65L22.0083 25.4833C19.6462 24.2753 17.7247 22.3538 16.5167 19.9917L18.35 18.1583C18.5833 17.925 18.65 17.6 18.5583 17.3083C18.2422 16.3484 18.0818 15.344 18.0833 14.3333C18.0833 13.875 17.7083 13.5 17.25 13.5Z" fill="#EEEEF0"/>
<defs>
<linearGradient id="paint0_linear_279_6810" x1="21" y1="0" x2="21" y2="42" gradientUnits="userSpaceOnUse">
<stop stop-color="#1048D9"/>
<stop offset="1" stop-color="#092673"/>
</linearGradient>
</defs>
</svg>
