<svg width="42" height="43" viewBox="0 0 42 43" fill="none" xmlns="http://www.w3.org/2000/svg">
<rect y="0.5" width="42" height="42" rx="10" fill="url(#paint0_linear_279_6820)"/>
<path d="M21.0001 13.168C17.7751 13.168 15.1667 15.7763 15.1667 19.0013C15.1667 23.3763 21.0001 29.8346 21.0001 29.8346C21.0001 29.8346 26.8334 23.3763 26.8334 19.0013C26.8334 15.7763 24.2251 13.168 21.0001 13.168ZM16.8334 19.0013C16.8334 16.7013 18.7001 14.8346 21.0001 14.8346C23.3001 14.8346 25.1667 16.7013 25.1667 19.0013C25.1667 21.4013 22.7667 24.993 21.0001 27.2346C19.2667 25.0096 16.8334 21.3763 16.8334 19.0013Z" fill="#EEEEF0"/>
<path d="M21.0001 21.0846C21.5526 21.0846 22.0825 20.8651 22.4732 20.4744C22.8639 20.0837 23.0834 19.5538 23.0834 19.0013C23.0834 18.4488 22.8639 17.9189 22.4732 17.5282C22.0825 17.1375 21.5526 16.918 21.0001 16.918C20.4475 16.918 19.9176 17.1375 19.5269 17.5282C19.1362 17.9189 18.9167 18.4488 18.9167 19.0013C18.9167 19.5538 19.1362 20.0837 19.5269 20.4744C19.9176 20.8651 20.4475 21.0846 21.0001 21.0846Z" fill="#EEEEF0"/>
<defs>
<linearGradient id="paint0_linear_279_6820" x1="21" y1="0.5" x2="21" y2="42.5" gradientUnits="userSpaceOnUse">
<stop stop-color="#1048D9"/>
<stop offset="1" stop-color="#092673"/>
</linearGradient>
</defs>
</svg>
