<svg width="19" height="20" viewBox="0 0 19 20" fill="none" xmlns="http://www.w3.org/2000/svg">
<path d="M19 10.2077C18.9992 5.12299 15.0424 0.928875 9.99592 0.663612C4.94945 0.398349 0.579855 4.1548 0.0525261 9.21173C-0.474803 14.2687 3.02473 18.8559 8.01601 19.6504V12.9707H5.60428V10.2077H8.01601V8.10181C8.01601 5.70619 9.43443 4.38292 11.6039 4.38292C12.3164 4.39286 13.0272 4.45516 13.7307 4.56931V6.92192H12.5325C12.1189 6.86665 11.7028 7.00364 11.4017 7.2942C11.1006 7.58476 10.9471 7.99736 10.9847 8.41545V10.2077H13.6196L13.1981 12.9707H10.9847V19.6504C15.6013 18.9155 19.0007 14.9107 19 10.2077Z" fill="#EEEEF0"/>
</svg>
