<svg width="18" height="19" viewBox="0 0 18 19" fill="none" xmlns="http://www.w3.org/2000/svg">
<path fill-rule="evenodd" clip-rule="evenodd" d="M5.28937 0.704391C6.24937 0.660891 6.55575 0.650391 9 0.650391C11.4443 0.650391 11.7506 0.660891 12.7106 0.704391C14.1739 0.771141 15.4583 1.12964 16.4895 2.16089C17.5211 3.19252 17.8792 4.47727 17.946 5.93977C17.9895 6.89977 18 7.20614 18 9.65039C18 12.0946 17.9895 12.401 17.946 13.361C17.8792 14.8243 17.5208 16.1086 16.4895 17.1399C15.4579 18.1715 14.1727 18.5296 12.7106 18.5964C11.7506 18.6399 11.4443 18.6504 9 18.6504C6.55575 18.6504 6.24937 18.6399 5.28937 18.5964C3.82612 18.5296 2.54175 18.1711 1.5105 17.1399C0.478875 16.1083 0.12075 14.8235 0.054 13.361C0.0105 12.401 0 12.0946 0 9.65039C0 7.20614 0.0105 6.89977 0.054 5.93977C0.12075 4.47652 0.47925 3.19214 1.5105 2.16089C2.54212 1.12927 3.82687 0.771141 5.28937 0.704391ZM12.6368 2.32439C11.6876 2.28089 11.403 2.27189 9 2.27189C6.597 2.27189 6.31238 2.28127 5.36325 2.32439C4.33913 2.37127 3.3885 2.57639 2.65725 3.30764C1.926 4.03889 1.72088 4.98952 1.674 6.01364C1.6305 6.96277 1.6215 7.24739 1.6215 9.65039C1.6215 12.0534 1.63087 12.338 1.674 13.2871C1.72088 14.3113 1.926 15.2619 2.65725 15.9931C3.3885 16.7244 4.33913 16.9295 5.36325 16.9764C6.312 17.0199 6.59663 17.0289 9 17.0289C11.4034 17.0289 11.688 17.0195 12.6368 16.9764C13.6609 16.9295 14.6115 16.7244 15.3427 15.9931C16.074 15.2619 16.2791 14.3113 16.326 13.2871C16.3695 12.338 16.3785 12.0534 16.3785 9.65039C16.3785 7.24739 16.3691 6.96277 16.326 6.01364C16.2791 4.98952 16.074 4.03889 15.3427 3.30764C14.6115 2.57639 13.6609 2.37127 12.6368 2.32439Z" fill="#EEEEF0"/>
<path fill-rule="evenodd" clip-rule="evenodd" d="M4.90918 10.0586C4.90918 7.57344 6.92366 5.55859 9.40918 5.55859C11.8947 5.55859 13.9092 7.57308 13.9092 10.0586C13.9092 12.5441 11.8947 14.5586 9.40918 14.5586C6.92366 14.5586 4.90918 12.5437 4.90918 10.0586ZM6.48805 10.0586C6.48805 11.6718 7.79599 12.9797 9.40918 12.9797C11.0224 12.9797 12.3303 11.6718 12.3303 10.0586C12.3303 8.4454 11.0224 7.13746 9.40918 7.13746C7.79599 7.13746 6.48805 8.4454 6.48805 10.0586Z" fill="#EEEEF0"/>
<circle cx="13.5" cy="5.1511" r="1.22727" fill="#EEEEF0"/>
</svg>
