<svg width="18" height="19" viewBox="0 0 18 19" fill="none" xmlns="http://www.w3.org/2000/svg">
<path fill-rule="evenodd" clip-rule="evenodd" d="M0.75 0.650391H17.25C17.6625 0.650391 18 0.987891 18 1.40039V17.9004C18 18.3129 17.6625 18.6504 17.25 18.6504H0.75C0.3375 18.6504 0 18.3129 0 17.9004V1.40039C0 0.987891 0.3375 0.650391 0.75 0.650391ZM2.6625 15.9879H5.325V7.40039H2.6625V15.9879ZM4.0125 6.23789C3.15 6.23789 2.475 5.56289 2.475 4.70039C2.475 3.83789 3.15 3.16289 4.0125 3.16289C4.875 3.16289 5.55 3.83789 5.55 4.70039C5.55 5.52539 4.875 6.23789 4.0125 6.23789ZM12.675 15.9879H15.3V11.2629C15.3 8.93789 14.8125 7.17539 12.1125 7.17539C10.8375 7.17539 9.9375 7.88789 9.6 8.56289H9.5625V7.40039H7.0125V15.9879H9.675V11.7504C9.675 10.6254 9.9 9.53789 11.2875 9.53789C12.675 9.53789 12.675 10.8129 12.675 11.8254V15.9879Z" fill="#EEEEF0"/>
</svg>
