<svg width="17" height="16" viewBox="0 0 17 16" fill="none" xmlns="http://www.w3.org/2000/svg">
<path d="M17 2.39008C16.3625 2.69936 15.6896 2.89266 14.9812 3.00864C15.6896 2.54472 16.2563 1.81018 16.5042 0.921009C15.8313 1.34627 15.0875 1.65555 14.2729 1.84884C13.6354 1.11431 12.7146 0.650391 11.7229 0.650391C9.81042 0.650391 8.25208 2.35142 8.25208 4.43905C8.25208 4.74833 8.2875 5.01895 8.35833 5.28957C5.48958 5.13493 2.90417 3.62719 1.16875 1.30761C0.885417 1.8875 0.708333 2.50606 0.708333 3.20194C0.708333 4.51637 1.31042 5.67616 2.26667 6.37204C1.7 6.33338 1.16875 6.17874 0.672917 5.90812V5.94678C0.672917 7.80245 1.87708 9.34884 3.47083 9.69678C3.1875 9.7741 2.86875 9.81276 2.55 9.81276C2.3375 9.81276 2.08958 9.7741 1.87708 9.73544C2.3375 11.2432 3.6125 12.3643 5.13542 12.3643C3.93125 13.3695 2.44375 13.988 0.814583 13.988C0.53125 13.988 0.247917 13.988 0 13.9494C1.55833 15.0318 3.36458 15.6504 5.34792 15.6504C11.7583 15.6504 15.2646 9.85142 15.2646 4.82565C15.2646 4.67101 15.2646 4.47771 15.2646 4.32307C15.9375 3.82049 16.5396 3.16328 17 2.39008Z" fill="#EEEEF0"/>
</svg>
