<svg width="32" height="32" viewBox="0 0 32 32" fill="none" xmlns="http://www.w3.org/2000/svg">
<rect width="32" height="32" rx="16" fill="#DCDDE3"/>
<path d="M15.9998 10C15.2665 10 14.6665 10.6 14.6665 11.3333C14.6665 12.0667 15.2665 12.6667 15.9998 12.6667C16.7332 12.6667 17.3332 12.0667 17.3332 11.3333C17.3332 10.6 16.7332 10 15.9998 10ZM15.9998 19.3333C15.2665 19.3333 14.6665 19.9333 14.6665 20.6667C14.6665 21.4 15.2665 22 15.9998 22C16.7332 22 17.3332 21.4 17.3332 20.6667C17.3332 19.9333 16.7332 19.3333 15.9998 19.3333ZM15.9998 14.6667C15.2665 14.6667 14.6665 15.2667 14.6665 16C14.6665 16.7333 15.2665 17.3333 15.9998 17.3333C16.7332 17.3333 17.3332 16.7333 17.3332 16C17.3332 15.2667 16.7332 14.6667 15.9998 14.6667Z" fill="black"/>
</svg>
