<svg width="42" height="42" viewBox="0 0 42 42" fill="none" xmlns="http://www.w3.org/2000/svg">
<path d="M8.75 19.4259L12.25 15.9259L21.875 25.5509L28 19.4259L33.25 24.6759V8.75H8.75V19.4259ZM8.75 24.3756V33.25H14.1759L19.4002 28.0257L12.25 20.8756L8.75 24.3756ZM19.1256 33.25H33.25V29.6256L28 24.3756L19.1256 33.25ZM7 5.25H35C35.9665 5.25 36.75 6.03351 36.75 7V35C36.75 35.9665 35.9665 36.75 35 36.75H7C6.03351 36.75 5.25 35.9665 5.25 35V7C5.25 6.03351 6.03351 5.25 7 5.25ZM27.125 17.5C25.6753 17.5 24.5 16.3248 24.5 14.875C24.5 13.4252 25.6753 12.25 27.125 12.25C28.5747 12.25 29.75 13.4252 29.75 14.875C29.75 16.3248 28.5747 17.5 27.125 17.5Z" fill="black"/>
</svg>
